<?xml version="1.0" standalone="no"?>
<!DOCTYPE svg PUBLIC "-//W3C//DTD SVG 20010904//EN"
 "http://www.w3.org/TR/2001/REC-SVG-20010904/DTD/svg10.dtd">
<svg version="1.0" xmlns="http://www.w3.org/2000/svg"
 width="533.000000pt" height="545.000000pt" viewBox="0 0 533.000000 545.000000"
 preserveAspectRatio="xMidYMid meet">

<g transform="translate(0.000000,545.000000) scale(0.100000,-0.100000)"
fill="#000000" stroke="none">
<path d="M2468 5295 c-2 -3 -13 -6 -24 -8 -35 -7 -59 -20 -112 -60 -58 -44
-55 -39 -259 -467 -63 -132 -234 -483 -331 -680 -37 -74 -73 -140 -82 -147
-17 -13 -68 -29 -120 -38 -19 -3 -58 -13 -87 -21 -29 -8 -65 -17 -80 -20 -15
-3 -36 -7 -45 -10 -10 -3 -30 -7 -44 -10 -14 -3 -51 -12 -82 -20 -32 -8 -68
-17 -82 -20 -14 -3 -54 -12 -90 -20 -36 -9 -73 -17 -83 -19 -10 -2 -26 -6 -35
-9 -9 -3 -33 -8 -52 -11 -19 -3 -58 -13 -87 -21 -29 -8 -65 -17 -80 -20 -15
-3 -36 -7 -45 -10 -10 -3 -30 -8 -45 -10 -16 -3 -51 -12 -79 -20 -28 -8 -62
-17 -75 -19 -135 -26 -183 -49 -247 -120 -80 -88 -94 -234 -30 -327 10 -14 18
-30 18 -34 0 -4 91 -120 202 -258 208 -260 280 -337 391 -423 32 -24 118 -96
156 -132 14 -13 45 -37 69 -54 23 -17 42 -34 42 -39 0 -4 4 -8 9 -8 10 0 61
-42 98 -80 23 -23 24 -29 18 -95 -8 -73 -11 -96 -19 -123 -3 -9 -8 -46 -11
-82 -4 -36 -13 -103 -20 -150 -8 -47 -17 -110 -20 -140 -3 -30 -8 -66 -10 -80
-12 -58 -14 -75 -20 -133 -4 -34 -10 -80 -15 -102 -5 -22 -12 -74 -16 -115 -3
-41 -9 -84 -13 -95 -11 -35 -5 -107 15 -167 3 -12 121 -164 261 -339 241 -301
258 -320 314 -348 52 -26 69 -29 127 -27 75 4 94 8 113 22 8 5 34 20 59 33 25
13 52 29 60 35 8 6 25 17 38 24 12 6 32 18 45 25 12 6 32 21 45 31 12 11 22
16 22 12 0 -4 12 2 26 13 15 12 32 21 39 21 6 0 20 9 30 20 10 11 21 17 26 15
4 -3 10 -1 14 5 3 6 23 19 43 30 20 11 55 32 77 45 22 14 47 28 55 32 8 3 25
15 38 26 12 11 22 17 22 13 0 -4 13 2 29 13 16 12 33 21 38 21 6 0 18 9 28 20
10 11 21 20 25 20 7 0 60 30 135 76 22 13 49 28 60 33 12 5 27 16 34 25 7 9
19 16 26 16 7 0 24 9 39 21 14 11 26 17 26 13 0 -4 9 1 21 12 35 32 95 25 196
-23 48 -22 136 -64 195 -91 58 -28 109 -48 112 -45 3 4 6 1 6 -5 0 -7 4 -11 8
-9 9 2 54 -18 261 -115 63 -29 118 -52 123 -51 4 2 8 -2 8 -7 0 -5 4 -9 8 -7
9 2 59 -20 237 -104 130 -61 221 -75 296 -45 68 27 136 91 171 159 27 54 29
67 25 126 -5 62 -11 104 -23 143 -3 9 -6 25 -8 35 -2 10 -11 56 -20 103 -20
104 -23 122 -36 185 -6 28 -12 60 -15 73 -2 13 -6 31 -9 40 -3 9 -8 32 -11 50
-3 18 -12 65 -21 105 -8 39 -18 83 -20 97 -5 30 -12 66 -20 100 -3 14 -7 36
-10 50 -3 14 -7 33 -10 42 -3 10 -8 30 -10 45 -3 16 -9 47 -15 71 -17 79 -22
114 -20 159 1 34 13 49 174 215 42 44 77 82 77 83 0 1 35 39 78 83 42 44 120
126 172 182 52 56 129 137 172 181 42 43 75 79 73 79 -1 0 38 41 86 92 106
110 132 158 132 248 0 66 -2 76 -20 120 -15 35 -513 656 -524 652 -5 -1 -9 2
-9 7 0 15 -112 50 -180 55 -36 3 -93 8 -127 11 -35 3 -91 7 -125 10 -35 3 -88
7 -118 10 -73 6 -213 17 -276 20 -27 2 -72 6 -100 9 -27 4 -83 8 -124 11 -150
8 -204 17 -216 34 -6 9 -11 19 -10 22 0 4 -6 15 -15 25 -9 11 -44 76 -79 147
-34 70 -67 130 -71 133 -5 3 -7 9 -4 14 3 5 1 11 -4 14 -4 3 -34 56 -65 118
-80 158 -78 155 -300 433 -196 246 -280 340 -296 330 -4 -3 -11 2 -14 11 -4 9
-9 14 -12 11 -3 -3 -18 -1 -33 5 -26 11 -125 20 -133 13z m537 -752 c14 -16
41 -59 60 -96 19 -38 39 -75 46 -83 6 -8 8 -14 4 -14 -5 0 0 -9 10 -20 10 -11
14 -20 10 -20 -4 0 -2 -8 7 -17 8 -10 41 -72 73 -138 32 -66 65 -128 73 -137
8 -10 12 -18 7 -18 -4 0 -3 -6 3 -12 6 -7 65 -121 131 -252 67 -131 126 -245
132 -252 6 -8 8 -14 4 -14 -4 0 7 -18 24 -39 17 -21 31 -43 31 -47 0 -17 137
-100 147 -90 3 3 13 1 23 -4 10 -5 53 -11 96 -14 44 -2 102 -7 129 -10 28 -3
86 -8 130 -11 44 -3 100 -7 125 -10 25 -2 83 -6 130 -10 47 -3 103 -7 125 -10
36 -3 147 -12 265 -21 55 -4 188 -15 215 -19 11 -1 32 -3 48 -4 40 -2 72 -43
73 -97 1 -24 -2 -44 -7 -44 -5 0 -9 -4 -9 -9 0 -5 -34 -44 -75 -85 -42 -42
-74 -76 -72 -76 3 0 -30 -36 -72 -79 -42 -44 -119 -125 -171 -181 -52 -56
-131 -139 -175 -185 -97 -101 -252 -266 -299 -318 -73 -80 -103 -201 -74 -303
5 -20 11 -44 13 -53 1 -9 10 -54 19 -101 9 -47 18 -95 21 -107 3 -13 7 -32 10
-44 2 -11 6 -28 9 -37 3 -9 8 -33 11 -52 3 -19 10 -53 15 -75 5 -22 11 -53 14
-70 5 -29 20 -105 31 -155 15 -74 26 -128 30 -148 2 -13 6 -31 9 -40 3 -9 8
-33 11 -52 4 -19 16 -87 29 -150 17 -85 20 -122 13 -143 -12 -37 -64 -69 -97
-61 -14 3 -32 7 -40 9 -16 4 -97 39 -264 118 -60 29 -113 51 -118 50 -4 -2 -8
2 -8 7 0 5 -4 9 -8 7 -9 -2 -54 18 -261 115 -63 29 -118 52 -123 51 -4 -2 -8
2 -8 7 0 5 -4 9 -8 7 -8 -2 -47 15 -262 115 -99 46 -179 60 -239 42 -23 -6
-41 -10 -41 -8 0 2 -15 -5 -32 -16 -18 -11 -46 -26 -63 -35 -16 -8 -43 -24
-60 -35 -16 -11 -41 -25 -55 -32 -14 -6 -35 -21 -48 -32 -13 -12 -27 -21 -30
-20 -7 1 -22 -7 -79 -43 -16 -10 -30 -18 -33 -18 -3 0 -18 -9 -35 -19 -16 -11
-41 -26 -55 -35 -52 -33 -66 -41 -95 -56 -16 -9 -43 -24 -60 -35 -16 -11 -47
-30 -69 -42 -21 -13 -46 -28 -55 -33 -9 -6 -34 -21 -56 -33 -22 -12 -58 -34
-80 -47 -22 -14 -47 -28 -55 -32 -8 -3 -25 -15 -37 -26 -13 -11 -23 -17 -23
-13 0 4 -12 -2 -26 -13 -15 -12 -32 -21 -39 -21 -6 0 -20 -9 -30 -20 -10 -11
-21 -17 -26 -15 -4 3 -10 1 -13 -4 -10 -16 -89 6 -109 31 -17 20 -18 33 -13
98 11 114 23 207 30 219 2 3 7 38 10 76 4 39 11 93 16 120 5 28 12 70 15 95
12 106 16 136 20 147 2 6 7 38 10 70 3 32 13 97 21 145 8 49 17 118 20 155 4
38 10 77 14 88 10 28 13 172 3 187 -4 7 -9 22 -10 32 -2 11 -10 27 -18 36 -8
9 -15 20 -15 24 0 10 -71 79 -135 131 -27 22 -59 50 -72 62 -13 12 -23 20 -23
18 0 -2 -10 6 -23 18 -34 31 -88 77 -93 77 -2 0 -12 8 -22 18 -29 27 -117 101
-153 128 -18 13 -35 27 -38 32 -3 4 -26 23 -51 41 -25 19 -50 41 -57 49 -6 7
-25 24 -42 36 -40 30 -119 95 -148 123 -13 13 -26 24 -30 25 -35 15 -126 112
-130 140 -6 36 32 110 49 97 2 -1 12 3 24 9 11 6 33 13 48 16 14 3 34 7 44 10
9 3 30 7 45 10 15 3 52 12 81 20 29 9 70 18 92 22 21 3 42 8 45 10 3 2 20 6
38 9 17 3 57 12 89 21 31 8 66 17 77 19 11 3 34 8 50 12 17 4 32 7 35 8 3 1
19 4 35 8 17 4 40 9 53 12 13 2 31 6 40 9 9 3 30 7 45 10 15 3 51 12 80 20 29
8 68 18 87 21 19 3 43 8 52 11 9 3 25 7 35 9 10 2 47 11 83 20 36 8 72 17 81
19 54 13 101 31 110 43 6 7 16 13 21 13 5 0 24 16 44 35 19 19 32 35 29 35 -4
0 1 7 9 16 9 8 16 22 16 30 0 8 4 14 9 14 5 0 15 17 21 38 7 20 36 84 65 142
29 58 86 173 125 255 40 83 98 204 130 270 55 113 173 359 209 433 21 45 47
62 93 62 28 0 44 -7 63 -27z"/>
</g>
</svg>
